<svg xmlns="http://www.w3.org/2000/svg" xmlns:xlink="http://www.w3.org/1999/xlink"><symbol id="test" viewBox="0 0 100 100"><path d="M50 10c22.1 0 40 17.9 40 40S72.1 90 50 90 10 72.1 10 50s17.9-40 40-40m0-10C22.4 0 0 22.4 0 50s22.4 50 50 50 50-22.4 50-50S77.6 0 50 0z"/><path d="M63.1 72.9c-.7.6-1.8 1.3-3.4 2.1-1.6.8-3.6 1.2-5.8 1.2-3.3 0-6-.9-8-2.7-2-1.8-3-4.7-3-8.8V45.5h-6.1v-8.1H43v-7.7l10.6-5.9v13.6h8.6v8.1h-8.6v18.3c0 1.5.2 2.5.7 3.1.5.6 1.1.9 2 .9.8 0 1.4-.3 1.9-.8.5-.6.8-1.1 1.1-1.6l3.8 7.5z"/></symbol><use xlink:href="#test" width="100" height="100"/><view id="test-view" viewBox="0 0 100 100"/></svg>